<svg xmlns="http://www.w3.org/2000/svg" width="1440" height="1024" fill="none" viewBox="0 0 1440 1024"><g clip-path="url(#clip0_6091_3041)"><path stroke="#fff" stroke-opacity=".04" d="M15.5 1024V0M79.5 1024V0M143.5 1024V0M207.5 1024V0M271.5 1024V0M335.5 1024V0M399.5 1024V0M463.5 1024V0M527.5 1024V0M591.5 1024V0M655.5 1024V0M719.5 1024V0M783.5 1024V0M847.5 1024V0M911.5 1024V0M975.5 1024V0M1039.5 1024V0M1103.5 1024V0M1167.5 1024V0M1231.5 1024V0M1295.5 1024V0M1359.5 1024V0M1423.5 1024V0M0 31.5H1440M0 95.5H1440M0 159.5H1440M0 223.5H1440M0 287.5H1440M0 351.5H1440M0 415.5H1440M0 479.5H1440M0 543.5H1440M0 607.5H1440M0 671.5H1440M0 735.5H1440M0 799.5H1440M0 863.5H1440M0 927.5H1440M0 991.5H1440"/><path fill="#fff" fill-opacity=".02" d="M272 160H335V223H272V160Z"/><path fill="#fff" fill-opacity=".02" d="M1168 800H1231V863H1168V800Z"/><path fill="#fff" fill-opacity=".02" d="M528 96H591V159H528V96Z"/><path fill="#fff" fill-opacity=".02" d="M1104 160H1167V223H1104V160Z"/><path fill="#fff" fill-opacity=".02" d="M1232 352H1295V415H1232V352Z"/><path fill="#fff" fill-opacity=".02" d="M1040 672H1103V735H1040V672Z"/><path fill="#fff" fill-opacity=".02" d="M784 800H847V863H784V800Z"/><path fill="#fff" fill-opacity=".02" d="M336 480H399V543H336V480Z"/><path fill="#fff" fill-opacity=".02" d="M208 800H271V863H208V800Z"/><path fill="#fff" fill-opacity=".02" d="M464 736H527V799H464V736Z"/><path fill="#fff" fill-opacity=".02" d="M336 224H399V287H336V224Z"/><path fill="#fff" fill-opacity=".02" d="M976 287H1039V350H976V287Z"/><path fill="#fff" fill-opacity=".02" d="M720 864H783V927H720V864Z"/><path fill="#fff" fill-opacity=".02" d="M1232 480H1295V543H1232V480Z"/><path fill="#fff" fill-opacity=".02" d="M1168 544H1231V607H1168V544Z"/><path fill="#fff" fill-opacity=".02" d="M784 224H847V287H784V224Z"/><path fill="#fff" fill-opacity=".02" d="M208 352H271V415H208V352Z"/><path fill="#fff" fill-opacity=".02" d="M272 608H335V671H272V608Z"/><path fill="#fff" fill-opacity=".02" d="M144 480H207V543H144V480Z"/><path fill="#fff" fill-opacity=".02" d="M848 32H911V95H848V32Z"/><path fill="#fff" fill-opacity=".02" d="M528 352H591V415H528V352Z"/><path fill="#fff" fill-opacity=".02" d="M912 480H975V543H912V480Z"/></g><defs><clipPath id="clip0_6091_3041"><rect width="1440" height="1024" fill="#fff"/></clipPath></defs></svg>